<svg width="24" height="24" viewBox="0 0 24 24" fill="none" xmlns="http://www.w3.org/2000/svg">
<path fill-rule="evenodd" clip-rule="evenodd" d="M11.1991 2.58655C11.6974 2.30969 12.3034 2.30969 12.8017 2.58655L20.0017 6.58655C20.5255 6.87756 20.8504 7.42968 20.8504 8.02891V15.9698C20.8504 16.569 20.5255 17.1211 20.0017 17.4121L12.8017 21.4121C12.3034 21.689 11.6974 21.689 11.1991 21.4121L3.99908 17.4121C3.47526 17.1211 3.15039 16.569 3.15039 15.9698V8.02891C3.15039 7.42968 3.47526 6.87756 3.99908 6.58655L11.1991 2.58655ZM12.0732 3.89778C12.0279 3.87261 11.9728 3.87261 11.9275 3.89778L4.72754 7.89778C4.67992 7.92424 4.65039 7.97443 4.65039 8.02891V15.9698C4.65039 16.0243 4.67992 16.0744 4.72754 16.1009L11.9275 20.1009C11.9728 20.1261 12.0279 20.1261 12.0732 20.1009L19.2732 16.1009C19.3209 16.0744 19.3504 16.0243 19.3504 15.9698V8.02891C19.3504 7.97443 19.3209 7.92424 19.2732 7.89778L12.0732 3.89778Z" fill="#ffffff"/>
<path fill-rule="evenodd" clip-rule="evenodd" d="M7.25039 11.9993C7.25039 9.37599 9.37704 7.24934 12.0004 7.24934C14.6237 7.24934 16.7504 9.37599 16.7504 11.9993C16.7504 14.6227 14.6237 16.7493 12.0004 16.7493C9.37704 16.7493 7.25039 14.6227 7.25039 11.9993ZM12.0004 8.74934C10.2055 8.74934 8.75039 10.2044 8.75039 11.9993C8.75039 13.7943 10.2055 15.2493 12.0004 15.2493C13.7953 15.2493 15.2504 13.7943 15.2504 11.9993C15.2504 10.2044 13.7953 8.74934 12.0004 8.74934Z" fill="#ffffff"/>
</svg>
